<svg width="174" height="66" viewBox="0 0 174 66" fill="none" xmlns="http://www.w3.org/2000/svg">
<path d="M38.2494 15.9393V7.97101C38.2494 7.09091 37.5359 6.37735 36.6557 6.37735H35.0621V1.59635C35.0621 0.716248 34.3486 0.00268397 33.4684 0.00268397C31.2122 0.00268397 27.7569 -0.170229 23.7008 2.25971C21.1794 1.5092 19.3962 1.59635 17.5317 1.59635C16.6515 1.59635 15.9381 2.30991 15.9381 3.19002V6.37735H14.3444C13.4642 6.37735 12.7507 7.09091 12.7507 7.97101V15.9393C12.7507 22.4297 17.6259 27.8026 23.9064 28.5893V49.4063C23.9064 50.2864 24.6199 51 25.5001 51C26.3803 51 27.0937 50.2864 27.0937 49.4063V43.8285H29.4842C34.3173 43.8285 38.2494 39.8964 38.2494 35.0633V32.6728C38.2494 31.7927 37.5359 31.0792 36.6557 31.0792H32.6716C30.5545 31.0792 28.6103 31.8337 27.0937 33.0879V28.5885C33.3649 27.8119 38.2494 22.4657 38.2494 15.9393ZM35.0621 15.9393C35.0621 18.7756 33.8077 21.3372 31.8253 23.0935C31.8566 22.8378 31.8747 22.5781 31.8747 22.314C31.8747 18.2781 30.3659 14.5886 27.8838 11.7778C29.9881 10.3419 32.4831 9.56468 35.0621 9.56468V15.9393ZM31.8747 3.19002V6.69887C31.5802 6.75883 31.2878 6.82726 30.9977 6.90366C29.9638 5.74636 28.7847 4.76037 27.4973 3.96364C28.8889 3.45486 30.3661 3.19002 31.8747 3.19002ZM19.1254 4.78368C22.2915 4.78368 25.3662 5.93979 27.7574 8.14871C26.9682 8.55599 26.2115 9.0308 25.4954 9.56916C23.6424 8.1761 21.4773 7.17707 19.1254 6.69777V4.78368ZM15.9381 15.9393V9.56468C22.968 9.56468 28.6874 15.2839 28.6874 22.314C28.6874 24.0949 27.2167 25.5461 25.4163 25.4998C19.8175 25.3616 15.9381 20.9135 15.9381 15.9393ZM32.6716 34.2665H35.0621V35.0633C35.0621 38.1389 32.5599 40.6412 29.4842 40.6412H27.0937V39.8443C27.0937 36.7688 29.596 34.2665 32.6716 34.2665Z" fill="white"/>
<path d="M57.8516 20.7813H51.3935V24.841H59.0216V27.9999H47.2869V10.9654H59.045V14.136H51.3935V17.7277H57.8516V20.7813ZM67.3627 16.628L70.1472 10.9654H74.8387L70.077 19.4125L74.9674 27.9999H70.2291L67.3627 22.232L64.4963 27.9999H59.7697L64.6484 19.4125L59.8984 10.9654H64.5782L67.3627 16.628ZM80.7346 22.2203V27.9999H76.6281V10.9654H83.4255C84.728 10.9654 85.8785 11.2072 86.8768 11.6908C87.883 12.1666 88.6591 12.849 89.205 13.7382C89.7588 14.6196 90.0357 15.6218 90.0357 16.745C90.0357 18.4063 89.439 19.7361 88.2457 20.7345C87.0601 21.7251 85.43 22.2203 83.3553 22.2203H80.7346ZM80.7346 19.0498H83.4255C84.2211 19.0498 84.8255 18.8509 85.2389 18.4531C85.6601 18.0553 85.8707 17.4937 85.8707 16.7684C85.8707 15.9728 85.6562 15.3371 85.2272 14.8614C84.7982 14.3856 84.2133 14.1438 83.4723 14.136H80.7346V19.0498ZM96.657 24.841H103.805V27.9999H92.5505V10.9654H96.657V24.841ZM119.529 19.8336C119.529 21.495 119.221 22.9652 118.605 24.2444C117.989 25.5235 117.111 26.5102 115.972 27.2043C114.841 27.8907 113.55 28.2339 112.1 28.2339C110.649 28.2339 109.362 27.9024 108.239 27.2394C107.116 26.5687 106.238 25.6132 105.607 24.3731C104.983 23.1329 104.655 21.7095 104.624 20.1027V19.1434C104.624 17.4742 104.928 16.004 105.536 14.7327C106.153 13.4535 107.03 12.4669 108.169 11.7727C109.315 11.0785 110.618 10.7314 112.076 10.7314C113.519 10.7314 114.806 11.0746 115.937 11.761C117.068 12.4474 117.946 13.4262 118.57 14.6976C119.201 15.9611 119.521 17.4118 119.529 19.0498V19.8336ZM115.352 19.12C115.352 17.4274 115.068 16.1444 114.498 15.2708C113.937 14.3895 113.129 13.9488 112.076 13.9488C110.017 13.9488 108.929 15.4931 108.812 18.5818L108.8 19.8336C108.8 21.5028 109.077 22.7858 109.631 23.6828C110.185 24.5797 111.008 25.0282 112.1 25.0282C113.137 25.0282 113.937 24.5875 114.498 23.7062C115.06 22.8248 115.344 21.5574 115.352 19.9038V19.12ZM128.291 21.9864H126.068V27.9999H121.962V10.9654H128.666C130.686 10.9654 132.265 11.4139 133.404 12.3109C134.543 13.2078 135.112 14.4753 135.112 16.1132C135.112 17.2988 134.87 18.2815 134.387 19.0615C133.911 19.8414 133.162 20.4732 132.14 20.9568L135.697 27.8244V27.9999H131.298L128.291 21.9864ZM126.068 18.8158H128.666C129.446 18.8158 130.031 18.613 130.421 18.2074C130.818 17.794 131.017 17.2208 131.017 16.4876C131.017 15.7544 130.818 15.1811 130.421 14.7678C130.023 14.3466 129.438 14.136 128.666 14.136H126.068V18.8158ZM148.472 20.7813H142.014V24.841H149.642V27.9999H137.908V10.9654H149.666V14.136H142.014V17.7277H148.472V20.7813Z" fill="#DD2242"/>
<path d="M51.6626 49.9999H47.5677V32.9654H51.6626V49.9999ZM69.0591 49.9999H64.976L58.939 39.4001V49.9999H54.8325V32.9654H58.939L64.9643 43.5652V32.9654H69.0591V49.9999ZM71.9717 49.9999V32.9654H77.4587C78.9641 32.9654 80.3173 33.3086 81.5185 33.995C82.7196 34.6735 83.6556 35.6368 84.3264 36.8848C85.0049 38.1249 85.3481 39.5171 85.3559 41.0615V41.8453C85.3559 43.4053 85.0244 44.8053 84.3615 46.0455C83.7063 47.2778 82.7781 48.245 81.577 48.9469C80.3836 49.6411 79.0499 49.9921 77.5757 49.9999H71.9717ZM76.0782 36.136V46.841H77.5055C78.6833 46.841 79.5881 46.4238 80.2198 45.5892C80.8516 44.7468 81.1675 43.4989 81.1675 41.8453V41.1083C81.1675 39.4625 80.8516 38.2224 80.2198 37.3878C79.5881 36.5533 78.6677 36.136 77.4587 36.136H76.0782ZM102.203 41.8336C102.203 43.495 101.894 44.9652 101.278 46.2444C100.662 47.5235 99.7847 48.5102 98.6459 49.2043C97.515 49.8907 96.2241 50.2339 94.7734 50.2339C93.3227 50.2339 92.0357 49.9024 90.9126 49.2394C89.7894 48.5687 88.9119 47.6132 88.2802 46.3731C87.6562 45.1329 87.3286 43.7095 87.2974 42.1027V41.1434C87.2974 39.4742 87.6016 38.004 88.21 36.7327C88.8261 35.4535 89.7036 34.4669 90.8424 33.7727C91.9889 33.0785 93.2915 32.7314 94.75 32.7314C96.1929 32.7314 97.4799 33.0746 98.6108 33.761C99.7418 34.4474 100.619 35.4262 101.243 36.6976C101.875 37.9611 102.195 39.4118 102.203 41.0498V41.8336ZM98.0259 41.12C98.0259 39.4274 97.7412 38.1444 97.1718 37.2708C96.6102 36.3895 95.803 35.9488 94.75 35.9488C92.6909 35.9488 91.6028 37.4931 91.4858 40.5818L91.4741 41.8336C91.4741 43.5028 91.751 44.7858 92.3048 45.6828C92.8586 46.5797 93.6814 47.0282 94.7734 47.0282C95.8108 47.0282 96.6102 46.5875 97.1718 45.7062C97.7334 44.8248 98.0181 43.5574 98.0259 41.9038V41.12ZM118.862 49.9999H114.779L108.742 39.4001V49.9999H104.635V32.9654H108.742L114.767 43.5652V32.9654H118.862V49.9999ZM132.339 42.7813H125.881V46.841H133.509V49.9999H121.775V32.9654H133.533V36.136H125.881V39.7277H132.339V42.7813ZM144.284 45.4722C144.284 44.8716 144.069 44.4036 143.64 44.0682C143.219 43.7329 142.474 43.3858 141.406 43.027C140.337 42.6682 139.464 42.3211 138.785 41.9857C136.578 40.9016 135.474 39.4118 135.474 37.5165C135.474 36.5728 135.747 35.7421 136.293 35.0245C136.847 34.2992 137.627 33.7376 138.633 33.3398C139.639 32.9342 140.77 32.7314 142.026 32.7314C143.25 32.7314 144.346 32.9498 145.313 33.3866C146.288 33.8234 147.045 34.4474 147.583 35.2585C148.121 36.0619 148.39 36.9822 148.39 38.0196H144.296C144.296 37.3254 144.081 36.7873 143.652 36.4051C143.231 36.0229 142.658 35.8318 141.932 35.8318C141.199 35.8318 140.618 35.9956 140.189 36.3232C139.768 36.643 139.557 37.0524 139.557 37.5516C139.557 37.9884 139.791 38.3862 140.259 38.745C140.727 39.096 141.55 39.4625 142.728 39.8447C143.906 40.2191 144.873 40.6247 145.629 41.0615C147.47 42.1222 148.39 43.5847 148.39 45.4488C148.39 46.9385 147.829 48.1085 146.706 48.9586C145.583 49.8088 144.042 50.2339 142.084 50.2339C140.704 50.2339 139.452 49.9882 138.329 49.4968C137.213 48.9976 136.371 48.3191 135.802 47.4611C135.24 46.5953 134.959 45.6009 134.959 44.4777H139.078C139.078 45.3903 139.312 46.065 139.78 46.5017C140.255 46.9307 141.024 47.1452 142.084 47.1452C142.763 47.1452 143.297 47.0009 143.687 46.7123C144.085 46.416 144.284 46.0026 144.284 45.4722ZM155.187 49.9999H151.092V32.9654H155.187V49.9999ZM168.243 46.8176H162.616L161.633 49.9999H157.246L163.493 32.9654H167.354L173.648 49.9999H169.238L168.243 46.8176ZM163.599 43.6471H167.26L165.424 37.7388L163.599 43.6471Z" fill="white"/>
</svg>
