<svg width="770" height="496" viewBox="0 0 770 496" fill="none" xmlns="http://www.w3.org/2000/svg">
<path fill-rule="evenodd" clip-rule="evenodd" d="M510.526 603.472C510.447 581.491 478.815 556.773 465.303 544.029C438.586 518.824 410.8 495.548 383.27 471.9C355.741 448.253 328.138 424.669 301.887 398.707C284.842 381.854 264.814 362.874 253.255 338.809C228.629 287.527 306.272 295.142 326.383 294.02C377.547 291.155 436.233 292.463 484.191 265.757C512.82 249.815 524.236 223.077 518.087 184.109C516.105 171.436 510.239 156.852 515.208 144.506C520.515 131.32 532.724 123.711 542.857 118.608C579.815 100.018 622.308 97.8646 661.412 95.5312C703.578 92.9671 746.14 93.7171 788.009 93.5184C805.762 93.4351 824.303 85.1849 841.209 78.4798C863.372 69.6912 885.273 59.8194 907.252 50.2744C955.607 29.3255 1005.43 7.26116 1056.59 1.9406C1088.63 -1.39277 1123.65 3.1137 1148.53 32.1076C1161.03 46.6654 1167.57 68.3066 1174.8 87.5312C1183.54 110.756 1191.94 134.205 1201.25 157.064C1231.24 230.686 1274.06 302.629 1343.56 306.245C1354.08 306.79 1364.4 305.014 1374.87 304.681C1381.53 304.476 1387.46 306.559 1389.94 315.578C1396.17 338.2 1376.59 373.912 1368.57 391.861C1350.99 431.15 1331.17 468.676 1312.61 507.176C1300.32 532.638 1279.06 567.433 1278.84 598.369C1278.64 625.934 1306.98 645.857 1322.41 659.434C1336.87 672.146 1363.07 689.934 1364.65 715.794C1365.42 728.332 1359.03 738.723 1352.35 746.787C1340.65 760.89 1327.18 770.839 1316.65 786.929C1299.4 813.327 1284.98 849.647 1287.32 885.218C1288.95 909.866 1299.82 926.007 1313.65 941.437C1319.46 947.924 1324.17 952.514 1324.48 963.046C1324.98 979.77 1319.91 997.469 1315.74 1012.98C1300.82 1068.47 1279.62 1122.13 1256.04 1172.23C1244.26 1197.27 1231.53 1222.23 1215.91 1243.59C1205.67 1257.62 1191.87 1274.31 1176.27 1274.29C1158.2 1274.29 1139.08 1265.86 1121.51 1259.55C1088.7 1247.76 1056.29 1234.13 1024.01 1220.15C949.361 1187.8 875.409 1152.84 802.16 1115.25C750.565 1088.73 697.875 1062.18 649.366 1026.92C639.906 1019.99 630.977 1011.92 622.699 1002.81C613.855 993.239 602.88 988.956 591.751 985.764C522.68 965.95 447.01 981.161 377.651 990.7C360.047 993.117 342.442 995.546 324.788 997.239C309.611 998.694 291.442 1002.87 276.691 996.598C247.626 984.258 273.034 938.776 283.777 920.244C321.597 854.994 370.393 799.788 415.621 743.428C437.125 716.588 458.792 689.819 479.127 661.46C489.716 646.716 510.596 622.741 510.526 603.472Z" stroke="#5BE7C3" stroke-width="2"/>
<path fill-rule="evenodd" clip-rule="evenodd" d="M523.56 599.76C511.967 576.501 491.628 559.31 474.745 543.131C450.45 519.839 425.391 497.843 400.709 475.211C377.37 453.81 353.982 432.166 332.369 407.862C319.19 393.042 302.654 375.319 296.412 353.399C282.871 305.887 355.717 313.096 373.701 311.853C418.41 308.777 469.098 308.072 510.46 283.057C536.287 267.436 546.898 241.531 541.389 205.565C539.486 193.122 536.054 182.499 540.398 170.119C545.421 155.792 556.973 146.86 567.564 140.555C600.74 120.801 639.955 116.604 675.917 113.112C713.069 109.505 751.778 106.961 787.736 109.601C802.115 110.651 818.665 104.686 832.896 100.111C854.791 93.0629 876.464 84.9318 898.25 77.371C942.528 61.993 987.955 47.179 1034.02 45.4938C1067.27 44.2764 1101.95 50.8761 1129.61 76.3843C1157.65 102.251 1170.09 142.349 1185.64 180.467C1212.5 246.368 1248.76 326.494 1310.89 340.417C1320.31 342.532 1329.37 341.385 1338.78 341.904C1343.62 342.167 1349.13 342.999 1351.58 349.17C1357.95 365.189 1340.49 394.477 1334.62 406.748C1318.38 440.656 1300.13 472.905 1283.12 506.16C1269.61 532.565 1252.48 561.905 1247.26 593.205C1240.92 631.189 1282.35 658.215 1296.92 684.96C1322.19 731.338 1274.32 757.762 1250.73 779.874C1223.63 805.261 1201.26 851.574 1225.56 890.852C1234.85 905.871 1246.28 914.822 1250.43 934.423C1256.92 965.076 1252.01 1000.11 1246.75 1030.41C1238.81 1075.96 1226.26 1121.01 1209.19 1162.18C1196.97 1191.66 1176.68 1237.87 1146.98 1234.41C1126.98 1232.09 1106.65 1223.64 1087.18 1216.17C1058.03 1204.99 1029.24 1192.25 1000.6 1179.01C934.505 1148.53 869.136 1114.93 805.05 1077.98C761.323 1052.75 639.35 949.66 630.172 945.982C602.807 935.025 571.694 936.954 543.482 938.652C505.953 940.907 468.612 946.751 431.301 952.165C413.541 954.728 395.691 957.861 377.836 959.123C365.128 960.02 348.439 960.789 337.307 951.236C315.58 932.596 339.787 889.948 349.797 871.905C380.464 816.589 419.258 768.687 455.631 719.708C473.481 695.661 491.604 671.652 507.807 645.676C514.342 635.187 530.724 614.126 523.56 599.76Z" stroke="#5ACEF2" stroke-width="2"/>
<path fill-rule="evenodd" clip-rule="evenodd" d="M539.597 587.839C507.938 541.295 464.243 506.678 426.531 467.806C407.603 448.29 388.556 428.241 372.231 404.995C363.738 392.907 353.134 377.621 351.498 360.771C347.126 315.694 412.783 321.79 432.435 320.078C470.43 316.758 513.352 314.24 547.822 291.237C568.881 277.175 579.252 254.095 575.316 223.76C573.571 210.3 570.854 198.866 575.316 185.65C579.837 172.261 589.257 162.814 598.795 155.732C626.205 135.363 660.268 128.851 691.129 123.999C727.332 118.348 763.807 116.142 800.259 117.398C832.186 118.481 863.959 106.297 895.132 98.2661C936.428 87.6331 978.473 78.3461 1020.73 79.7498C1054.1 80.865 1087.74 89.6264 1116.27 112.911C1145.26 136.626 1162.69 172.12 1178.41 210.422C1202.17 268.323 1231.77 345.914 1283.89 367.904C1291.47 371.109 1298.54 371.462 1306.35 372.019C1310.15 372.288 1315.05 372.372 1316.94 377.493C1321.47 389.824 1304.72 413.731 1300.04 422.063C1285.12 448.661 1268.94 474.061 1253.65 500.307C1239.37 524.81 1223.82 550.344 1214.95 579.058C1200.84 624.788 1245.96 651.528 1244.7 695.104C1243.91 722.158 1223.88 741.559 1208.01 754.98C1188.48 771.484 1160.35 782.335 1150.58 812.452C1143.3 834.884 1154.72 847.94 1163.52 864.963C1178.43 893.805 1179.45 932.901 1177.9 966.287C1175.81 1011.4 1167.63 1057.18 1153.72 1098.65C1147.41 1117.45 1139.69 1137 1128.31 1151.61C1117.66 1165.29 1107.58 1168.79 1093.34 1165.99C1049.75 1157.41 1005.74 1133.47 963.947 1112.09C911.432 1085.22 859.641 1055.56 809.396 1022.18C775.134 999.423 740.1 975.344 710.027 943.9C702.189 935.702 694.163 926.793 688.432 915.981C684.099 907.854 682.26 901.143 674.958 896.503C653.313 882.755 623.206 886.351 600.015 887.78C562.932 890.055 526.028 896.112 489.174 901.566C467.668 904.771 427.155 914.853 409.982 890.671C395.159 869.789 413.046 834.186 422.183 815.791C445.295 769.272 475.025 728.445 502.609 686.407C515.251 667.141 528.388 647.727 538.829 626.307C541.496 620.846 545.769 613.61 546.503 606.977C547.326 599.375 543.484 593.575 539.597 587.839Z" stroke="#5BE7C3" stroke-width="2"/>
<path fill-rule="evenodd" clip-rule="evenodd" d="M542.319 598.666C513.065 557.512 477.822 523.702 446.416 485.192C432.334 467.924 418.114 449.811 407.384 428.746C401.613 417.419 395.484 403.16 397.076 389.081C401.643 348.671 455.643 352.321 477.46 349.954C509.877 346.478 547.118 342.975 575.782 321.186C594.559 306.915 601.6 285.837 598.094 258.654C594.331 229.495 602.745 208.328 621.894 192.062C645.902 171.684 676.207 163.377 704.083 157.476C737.667 150.4 771.677 147.264 805.697 148.105C838.784 148.926 870.839 141.755 903.708 137.092C947.286 130.915 992.262 127.868 1035.35 140.53C1072.86 151.556 1106.75 175.853 1132.15 213.427C1158.68 252.644 1171.82 302.053 1193.36 345.438C1206.8 372.5 1225.53 408.298 1250.64 418.817C1259.02 422.326 1274.28 417.592 1267.59 434.853C1263.77 444.724 1256.61 453.383 1250.96 461.452C1241.83 474.493 1232.39 487.174 1223.1 500.034C1203.31 527.448 1182.11 555.446 1167.28 587.909C1148.59 628.78 1176.37 660.236 1172.99 701.678C1171.17 723.98 1159.18 741.78 1146.49 755.763C1138.29 764.819 1129.31 772.664 1120.14 779.983C1110.57 787.628 1099.24 793.453 1090.89 803.337C1078.99 817.403 1084.15 834.055 1086.39 852.239C1090.31 884.196 1091.18 916.658 1088.95 948.888C1086.24 988.394 1079.87 1029.03 1066.44 1064.93C1061.22 1078.9 1054.61 1093.72 1044.79 1103.09C1034.96 1112.46 1024.8 1111.82 1013.55 1109C980.164 1100.66 946.85 1081.26 915.181 1062.87C875.545 1039.85 836.687 1014.12 799.579 984.853C773.964 964.648 748.266 942.821 726.836 915.425C720.604 907.453 714.673 898.915 709.879 889.384C706.586 882.848 704.821 874.413 700.051 869.5C685.127 854.163 655.164 858.743 637.661 859.635C602.73 861.411 568.35 869.859 533.463 871.911C514.424 873.034 484.605 875.856 470.622 854.888C457.473 835.177 469.383 804.132 477.241 785.14C492.687 747.796 513.437 714.526 532.035 679.812C539.681 665.527 548.061 650.582 553.014 634.271C557.417 619.736 549.816 609.217 542.319 598.666Z" stroke="#5ACEF2" stroke-width="2"/>
<path fill-rule="evenodd" clip-rule="evenodd" d="M549.514 599.343C526.229 563.129 498.158 530.982 474.704 494.179C460.976 472.626 437.334 436.393 447.951 406.008C459.599 372.618 500.199 371.709 523.667 369.019C551.6 365.816 584.402 361.441 608.306 340.593C615.867 334.002 622.307 325.279 625.037 313.788C627.96 301.491 624.765 290.73 624.348 278.42C623.476 252.595 635.396 231.862 651.171 217.623C673.465 197.492 701.343 187.974 727.675 181.339C757.507 173.855 787.835 170.165 818.224 170.322C847.266 170.45 876.001 169.618 905.073 168.657C943.092 167.376 981.646 169.445 1018.53 182.505C1054.86 195.379 1087.89 219.506 1113.83 254.997C1139.14 289.628 1156.22 331.959 1171.18 375.078C1179.66 399.551 1194 436.124 1214.24 448.486C1223.25 453.988 1232.08 453.61 1222.51 467.919C1210.45 485.936 1194.21 500.392 1180.25 515.802C1160.11 538.041 1139.46 560.714 1122.56 587.154C1111.77 604.038 1106.95 620.422 1107.7 642.282C1108.27 658.935 1110.88 675.415 1109.56 692.133C1106.47 731.37 1082.58 758.277 1061.45 783.334C1047.86 799.449 1035.45 811.74 1028.46 834.663C1020.19 861.757 1016.71 891.233 1011.18 919.363C1005.11 950.255 998.094 982.389 984.837 1009.6C973.036 1033.82 958.683 1044.68 937.201 1038.16C903.695 1027.99 870.67 1002.93 840.925 979.75C810.649 956.167 780.894 929.65 755.805 897.234C742.26 879.729 733.016 859.175 720.987 840.37C705.856 816.761 671.627 825.703 651.285 827.701C617.516 831.019 511.262 855.845 521.066 775.436C525.159 741.874 541.275 710.899 553.061 681.282C557.946 668.991 565.016 654.24 566.121 640.156C567.325 624.816 556.514 610.244 549.514 599.343Z" stroke="#FF8062" stroke-width="2"/>
<path fill-rule="evenodd" clip-rule="evenodd" d="M561.808 602.411C544.014 569.594 522.719 538.59 507.45 503.145C497.546 480.191 487.819 449.52 500.596 425.233C515.018 397.824 546.817 391.435 570.183 387.942C594.256 384.347 622.995 381.322 642.671 360.54C648.931 353.92 654.091 344.993 655.052 334.304C655.978 324.051 653.363 313.798 654.23 303.358C656.171 279.917 667.161 260.602 681.33 246.593C723.242 205.15 785.622 195.935 836.191 194.852C861.503 194.314 887.553 197.14 913.028 199.165C946.085 201.792 979.192 207.432 1010.72 221.024C1077.75 249.913 1122.68 313.983 1154.06 393.71C1163.93 418.805 1171.49 445.957 1186.97 466.124C1194.94 476.538 1193.2 484.016 1185.04 493.514C1172.29 508.355 1156.74 519.698 1142.58 532.086C1122.45 549.702 1101.89 567.582 1084.08 588.684C1071.81 603.231 1063.1 617.246 1060.46 639.06C1058.57 654.614 1059.01 670.461 1057.88 686.111C1055.72 715.839 1048.32 745.343 1035.23 770.003C1024.83 789.548 1012.45 807.312 999.656 824.249C983.02 846.3 968.951 868.704 956.317 894.876C939.568 929.519 916.034 993.424 876.583 976.512C833.071 957.851 792.288 910.435 764.372 864.494C754.997 849.069 747.301 830.151 734.657 818.777C715.729 801.775 696.524 802.371 674.01 802.442C640.304 802.538 566.959 812.003 566.166 746.689C565.854 720.812 574.511 696.345 578.656 671.455C583.331 643.578 573.961 624.776 561.808 602.411Z" stroke="#F1B170" stroke-width="2"/>
<path fill-rule="evenodd" clip-rule="evenodd" d="M575.061 605.341C557.461 562.569 517.993 492.287 548.011 444.725C563.868 419.59 591.914 410.144 615.441 404.515C634.375 399.962 657.208 398.252 671.513 378.951C682.028 364.76 677.36 344.107 681.389 326.343C686.389 304.32 697.865 286.299 711.967 272.755C751.375 234.902 806.169 223.285 853.575 220.813C902.81 218.252 957.059 230.233 1003.39 253.281C1061.16 282.028 1104.43 336.461 1134.7 405.392C1140.29 418.117 1145.36 431.174 1150.72 444.053C1154.32 452.691 1159.66 461.048 1162.5 470.136C1167.23 485.287 1161.66 497.672 1152.73 507.547C1139.89 521.764 1124.11 531.882 1109.47 542.551C1089.45 557.151 1068.98 571.49 1050.35 588.62C1037.83 600.147 1024.73 612.564 1020.25 632.564C1017.19 646.204 1016.56 660.651 1016.67 674.778C1016.91 705.068 1015.68 729.563 1004.75 757.305C986.76 802.849 959.1 843.802 929.88 877.877C906.947 904.62 870.661 946.161 837.248 928.282C807.269 912.272 789.733 873.951 769.982 842.969C760.379 827.907 749.592 814.152 736.916 803.438C720.936 789.932 705.892 784.265 686.959 782.056C655.092 778.335 607.042 777.368 597.191 727.93C593.554 709.685 595.63 690.788 593.723 672.306C591.23 647.869 583.941 626.915 575.061 605.341Z" stroke="#5BE7C3" stroke-width="2"/>
<path fill-rule="evenodd" clip-rule="evenodd" d="M593.363 606.926C580.83 560.125 564.365 501.144 594.636 459.549C609.298 439.4 629.923 428.135 649.884 419.718C664.18 413.685 686.88 411.909 695.645 393.362C702.082 379.713 702.974 360.884 708.797 346.261C716.799 326.156 728.922 309.596 743.144 296.633C780.194 262.853 828.45 249.801 872.458 246.063C968.08 237.953 1065.37 302.544 1116.54 408.813C1131.8 440.489 1151.49 474.205 1126.84 506.568C1099.92 541.873 1059.37 558.414 1027.24 583.5C1014.96 593.078 999.321 604.592 992.473 621.934C988.353 632.358 988.07 645.437 987.882 656.912C987.387 686.14 985.51 712.425 976.424 739.698C962.39 781.843 940.012 820.726 914.653 852.576C892.538 880.349 860.999 912.987 828.881 892.965C804.255 877.579 788.637 844.921 769.503 820.848C748.209 794.037 721.875 775.971 692.956 767.143C664.824 758.578 633.969 752.802 619.143 716.413C614.057 703.931 608.744 687.768 606.837 673.953C603.759 651.174 599.253 628.757 593.363 606.926V606.926Z" stroke="#FF8062" stroke-width="2"/>
<path fill-rule="evenodd" clip-rule="evenodd" d="M613.77 607.251C607.971 559.993 607.327 510.715 634.267 473.469C646.84 456.092 662.733 443.747 678.804 432.562C690.629 424.332 702.84 417.391 711.671 403.898C719.853 391.406 726.073 376.901 733.972 364.081C744.392 347.093 756.861 332.387 770.897 320.528C806.084 290.858 848.887 276.981 889.836 272.167C909.659 269.827 931.162 268.61 950.852 274.987C969.867 281.141 988.669 290.87 1006.15 302.215C1043.32 326.309 1075.53 361.595 1098.89 406.206C1114.9 436.805 1123.56 466.559 1102.82 497.601C1079.44 532.591 1042.79 551.897 1012.58 574.607C991.861 590.182 968.638 605.45 964.767 638.549C961.685 664.887 959.182 689.884 951.208 714.779C939.341 751.5 921.892 784.764 899.896 812.597C879.781 837.954 854.333 859.471 825.56 845.927C802.763 835.178 785.076 811.097 765.159 793.881C742.962 774.652 718.574 764.05 692.894 755.525C669.815 747.834 648.083 736.014 633.167 710.921C630.114 705.793 626.907 700.21 624.553 694.474C621.55 687.154 621.783 679.898 621.193 671.694C619.657 650.042 616.391 628.64 613.77 607.251Z" stroke="#F1B170" stroke-width="2"/>
<path fill-rule="evenodd" clip-rule="evenodd" d="M636.27 603.391C636.765 558.503 645.112 516.079 667.972 481.097C677.745 466.132 689.416 453.806 700.17 440.093C708.828 429.037 717.012 418.766 726.968 409.656C750.586 388.084 769.781 360.17 794.88 340.962C828.385 315.282 866.765 301.088 904.847 295.412C923.442 292.639 942.652 291.669 961.465 294.802C977.623 297.492 993.098 306.936 1007.45 316.598C1035.59 335.524 1062.91 362.424 1081.18 396.456C1121.45 471.486 1042.04 526.037 1001.29 557.983C982.542 572.678 953.901 589.697 946.223 618.805C940.735 639.6 937.391 660.747 930.323 680.899C911.336 735.02 872.793 798.674 821.431 790.199C799.452 786.578 779.42 771.87 758.903 761.996C737.776 751.827 715.971 746.158 694.013 739.937C673.49 734.127 657.134 725.858 643.879 703.69C637.543 693.104 638.103 680.431 637.538 667.443C636.617 646.109 636.047 624.654 636.27 603.391Z" stroke="#5BE7C3" stroke-width="2"/>
<path fill-rule="evenodd" clip-rule="evenodd" d="M656.759 597.638C665.01 529.883 695.657 455.914 740.719 416.565C793.726 370.279 851.15 331.301 914.481 320.097C943.843 314.901 976.007 312.345 1003.71 329.335C1024.8 342.257 1049.29 361.572 1060.89 388.736C1089.28 455.177 1026.14 508.069 990.16 538.807C970.79 555.355 946.134 571.481 931.535 595.646C923.065 609.657 918.741 628.191 911.903 643.579C891.179 690.212 857.066 727.824 814.573 734.551C794.926 737.658 775.134 733.814 755.636 730.759C735.676 727.632 715.468 725.934 695.632 721.572C679.798 718.087 661.138 712.186 655.306 690.27C647.952 662.651 653.392 625.308 656.759 597.638Z" stroke="#5ACEF2" stroke-width="2"/>
<path fill-rule="evenodd" clip-rule="evenodd" d="M676.85 586.756C688.884 523.055 714.368 460.918 757.209 422.89C779.928 402.725 806.301 388.804 831.621 375.051C860.322 359.464 890.309 347.365 920.936 341.364C959.07 333.887 1020.83 327.149 1040.76 383.348C1060.53 439.131 1010.56 488.502 981.01 516.637C962.064 534.66 941.788 551.203 923.687 570.906C913.871 581.588 906.31 593.931 898.004 606.46C875.047 641.173 842.32 668.654 808.962 683.324C776.631 697.546 736.635 703.842 702.508 699.142C687.782 697.122 677.257 690.307 672.804 670.93C666.633 643.994 671.875 613.07 676.85 586.756Z" stroke="#F1B170" stroke-width="2"/>
<path fill-rule="evenodd" clip-rule="evenodd" d="M696.814 569.599C708.769 513.512 734.556 462.285 772.169 428.623C814.332 390.887 868.624 369.919 918.525 359.256C945.049 353.592 1002.53 338.236 1016.05 382.184C1029.57 426.133 990.484 469.443 967.989 493.284C940.688 522.177 911.252 550.073 881.852 575.996C856.307 598.536 829.05 621.579 801.382 638.985C785.777 648.859 769.522 656.921 752.808 663.076C740.432 667.597 724.695 674.339 711.72 670.974C678.992 662.476 691.096 596.416 696.814 569.599Z" stroke="#FF8062" stroke-width="2"/>
<path fill-rule="evenodd" clip-rule="evenodd" d="M721.457 552.803C747.688 446.737 830.797 394.571 910.817 376.389C929.412 372.168 981.538 356.951 991.932 389.352C1002 420.766 969.972 458.022 954.975 475.673C908.506 530.368 851.094 570.922 796.691 611.098C779.71 623.638 749.084 650.851 728.019 638.298C705.149 624.643 716.022 574.796 721.457 552.803Z" stroke="#5ACEF2" stroke-width="2"/>
<path fill-rule="evenodd" clip-rule="evenodd" d="M748.326 532.387C771.138 454.277 837.489 409.478 898.492 394.71C913.434 391.096 951.381 379.845 962.698 401.642C973.17 421.806 948.178 451.022 938.828 462.632C918.012 488.485 893.343 509.782 868.971 530.253C846.437 549.193 823.66 568.607 799.949 584.625C787.46 593.056 764.037 611.048 749.845 598.028C734.566 584.022 743.261 549.731 748.326 532.387Z" stroke="#5ACEF2" stroke-width="2"/>
<path fill-rule="evenodd" clip-rule="evenodd" d="M14.8456 663.571C14.2172 613.53 -6.34107 561.523 3.81187 510.534C12.149 468.657 54.1214 465.161 79.3009 446.189C99.3099 431.115 110.665 404.414 121.486 378.795C131.209 355.794 139.941 332.102 150.183 309.48C156.814 294.855 168.199 266.137 182.577 265.618C196.342 265.118 208.964 287.498 216.959 300.727C227.384 317.971 236.627 336.354 246.75 353.873C263.81 383.424 284.279 405.298 307.717 425.999C334.389 449.554 361.502 472.305 389.055 494.251C409.341 510.458 429.765 526.542 449.265 544.35C461.496 555.523 488.491 576.488 488.615 597.087C488.674 606.916 481.475 617.801 476.621 625.658C468.408 638.957 459.047 651.117 449.656 663.014C432.165 685.176 413.932 706.332 395.898 727.744C372.489 755.534 350.13 782.87 329.552 814.418C308.276 847.075 287.951 880.807 267.209 914.078C253.163 936.617 239.131 961.929 218.869 975.76C193.492 993.049 172.661 974.819 146.997 974.607C124.92 974.422 126.548 908.238 123.742 889.835C120.927 871.208 114.722 853.868 112.318 835.197C109.319 811.889 109.28 788.043 108.543 764.486C107.647 735.671 107.291 708.24 83.4867 697.252C69.9396 691.009 55.2842 689.696 41.262 685.957C32.1778 683.53 15.0435 679.381 14.8456 663.571Z" stroke="#FF8062" stroke-width="2"/>
<path fill-rule="evenodd" clip-rule="evenodd" d="M25.6993 654.673C23.3852 612.726 9.71341 559.037 22.6419 515.738C33.6873 478.735 68.2309 473.938 91.4912 454.501C110.693 438.469 119.241 412.233 128.839 386.46C136.54 365.785 144.008 344.911 152.749 324.896C159.191 310.146 169.027 285.245 182.421 282.193C194.463 279.448 207.376 301.431 214.135 312.615C223.997 328.943 232.431 346.674 241.142 364.034C256.449 394.527 272.123 421.949 294.526 444.349C317.028 466.846 341.646 483.667 366.527 501.174C385.991 514.872 405.357 528.967 423.85 544.782C437.626 556.556 457.432 571.626 463.735 592.622C468.725 609.231 443.418 636.794 435.956 646.522C420.594 666.524 404.316 685.301 388.008 703.963C368.127 726.703 347.612 746.589 330.055 772.529C298.654 818.907 272.405 876.662 231.999 911.131C207.629 931.922 180.509 937.238 153.403 934.128C142.67 932.897 140.093 913.293 138.74 901.858C136.49 882.863 136.208 863.541 134.479 844.469C132.858 826.616 129.261 809.654 126.362 792.146C123.428 774.408 122.606 756.234 120.445 738.374C119.107 727.286 117.784 714.384 111.932 705.47C105.876 696.241 95.8865 692.375 87.1552 689.437C70.7581 683.974 27.3345 684.275 25.6993 654.673Z" stroke="#5BE7C3" stroke-width="2"/>
<path fill-rule="evenodd" clip-rule="evenodd" d="M39.6684 637.112C35.7765 598.608 30.3279 550.651 46.1829 515.176C59.1426 486.17 86.7823 479.913 106.524 461.013C122.945 445.297 129.147 420.3 137.297 397.071C143.985 378.017 150.708 358.881 158.814 340.75C164.962 326.999 172.884 308.356 185.091 303.559C195.527 299.46 207.316 317.821 213.102 326.961C222.953 342.536 230.985 359.989 238.962 377.21C252.011 405.39 264.019 435.491 282.591 458.413C300.637 480.656 322.074 493.785 343.914 508.548C360.641 519.858 377.265 531.604 393.025 545.092C405.127 555.442 420.125 567.706 426.431 584.928C431.885 599.78 417.884 617.36 410.888 627.838C399.337 645.13 386.516 660.994 373.874 676.922C360.23 694.106 345.118 709.957 331.916 727.563C304.152 764.613 281.971 805.634 247.752 834.019C225.591 852.406 195.77 869.109 169.573 866.105C150.733 863.941 151.972 810.002 150.163 792.767C147.188 764.587 141.442 734.979 132.315 709.022C124.476 686.779 105.85 679.92 88.7159 674.931C77.9823 671.799 66.733 670.108 56.3514 665.266C44.3337 659.656 41.2995 653.251 39.6684 637.112Z" stroke="#5ACEF2" stroke-width="2"/>
<path fill-rule="evenodd" clip-rule="evenodd" d="M52.6983 619.065C50.3811 586.512 50.9021 548.018 65.9122 519.858C79.0664 495.193 102.487 488.699 119.145 469.268C132.145 454.109 137.251 429.393 144.242 409.346C152.787 384.834 164.76 339.563 186.315 330.339C206.367 321.764 227.336 376.542 234.595 392.876C246.087 418.73 255.699 447.082 269.637 470.958C281.64 491.512 297.722 502.875 314.791 515.086C336.555 530.681 369.597 549.174 381.233 579.569C389.906 602.217 361.702 635.888 352.071 651.58C341.998 667.972 334.411 687.403 324.016 703.217C307.611 728.171 281.03 748.263 259.083 763.595C237.746 778.51 210.039 795.018 185.834 794.035C169.926 793.393 166.899 761.611 163.505 746.086C158.642 724.015 152.177 704.238 138.288 689.227C124.151 673.946 107.489 666.745 89.9729 660.444C80.9818 657.232 70.7253 654.727 62.6819 648.24C53.795 641.181 53.5915 631.578 52.6983 619.065Z" stroke="#F1B170" stroke-width="2"/>
<path fill-rule="evenodd" clip-rule="evenodd" d="M68.5747 600.3C68.7032 572.176 73.6739 542.186 88.4127 520.493C100.688 502.423 119.903 496.383 131.655 477.911C140.963 463.287 145.701 442.757 151.933 425.774C159.555 404.962 170.332 368.606 189.285 361.384C207.782 354.353 224.143 394.397 231.236 410.242C241.622 433.476 250.03 458.103 260.511 481.273C268.721 499.451 278.761 511.167 292.13 522.883C307.823 536.645 329.719 551.889 338.102 574.656C344.146 591.14 329.516 617.481 324.204 632.003C320.643 641.756 317.384 651.664 315.593 662.235C314.199 670.468 314.06 678.087 310.019 685.156C299.846 702.938 277.54 705.258 262.405 711.119C242.305 718.898 220.978 727.738 199.943 729.425C187.014 730.48 180.417 715.069 173.037 704.229C164.318 691.414 151.973 682.197 141.191 672.526C126.961 659.743 111.476 651.791 95.4557 643.648C88.2297 639.973 79.7425 636.368 74.1438 629.062C68.2977 621.488 68.5301 610.45 68.5747 600.3Z" stroke="#FF8062" stroke-width="2"/>
<path fill-rule="evenodd" clip-rule="evenodd" d="M85.2493 583.602C87.804 559.982 95.7651 537.407 109.212 520.71C119.52 507.89 133.209 500.673 141.482 485.27C149.191 470.913 154.563 454.587 160.93 439.236C167.668 423.006 177.679 395.88 193.22 391.464C209.969 386.708 222.871 414.071 230.015 429.236C239.041 448.402 245.898 469.022 253.968 488.847C260.048 503.624 267.803 517.138 276.975 528.94C286.595 541.381 299.641 553.297 304.508 570.405C308.81 585.557 300.76 603.889 299.339 619.253C297.819 635.669 300.482 652.911 292.056 667.006C274.678 696.074 231.065 690.683 206.132 691.305C181.531 691.946 161.752 674.159 141.844 657.237C128.694 646.065 115 636.604 101.518 626.195C87.7743 615.574 83.0015 604.389 85.2493 583.602Z" stroke="#5ACEF2" stroke-width="2"/>
<path fill-rule="evenodd" clip-rule="evenodd" d="M100.741 570.086C108.296 535.867 131.892 517.68 148.76 491.82C162.562 470.65 172.911 426.809 196.155 421.009C222.544 414.428 238.343 472.517 247.517 494.932C257.698 519.79 275.829 540.011 283.369 566.326C287.332 580.138 283.929 593.026 281.819 606.832C279.505 621.991 277.766 637.49 269.78 649.692C254.061 673.704 223.362 673.537 201.252 674.198C178.365 674.884 158.118 658.429 139.883 642.006C120.542 624.615 93.0033 605.177 100.741 570.086Z" stroke="#5ACEF2" stroke-width="2"/>
<path fill-rule="evenodd" clip-rule="evenodd" d="M113.395 560.806C121.908 536.426 139.797 516.606 154.312 497.896C166.428 482.297 179.462 450.897 197.934 448.658C219.646 446.018 232.804 479.549 241.347 500.109C249.755 520.311 261.87 541.643 266.526 563.816C271.381 586.914 258.452 618.021 246.122 634.366C232.37 652.591 209.87 659.326 190.564 658.599C170.35 657.859 151.802 642.796 136.493 627.172C120.126 610.471 103.495 589.107 113.395 560.806Z" stroke="#FF8062" stroke-width="2"/>
<path fill-rule="evenodd" clip-rule="evenodd" d="M125.136 556.214C133.268 535.936 147.363 518.783 160.359 503.483C170.389 491.67 185.189 471.584 199.658 471.092C215.577 470.549 229.068 487.409 235.396 504.69C241.635 521.735 248.208 543.104 249.142 561.804C251.17 602.525 209.883 648.139 178.88 644.427C149.486 640.907 108.923 596.615 125.136 556.214Z" stroke="#5ACEF2" stroke-width="2"/>
<path fill-rule="evenodd" clip-rule="evenodd" d="M135.994 553.981C147.212 527.561 174.461 489.896 199.687 489.001C228.643 487.979 235.912 529.893 232.138 560.268C228.304 591.269 194.92 636.141 168.3 630.077C142.32 624.161 122.7 585.314 135.994 553.981Z" stroke="#5BE7C3" stroke-width="2"/>
</svg>
