<svg width="59" height="59" viewBox="0 0 59 59" fill="none" xmlns="http://www.w3.org/2000/svg">
<path fill-rule="evenodd" clip-rule="evenodd" d="M29.3434 58.6869C45.5494 58.6869 58.6869 45.5494 58.6869 29.3434C58.6869 13.1375 45.5494 0 29.3434 0C13.1375 0 0 13.1375 0 29.3434C0 45.5494 13.1375 58.6869 29.3434 58.6869Z" fill="#DD2242"/>
<path d="M30.0533 38.3472C28.8561 38.3472 27.7645 38.1359 26.7786 37.7134C25.8102 37.2732 25.0356 36.613 24.4546 35.7327C23.8736 34.8524 23.5655 33.752 23.5302 32.4315H26.3032C26.3384 33.4175 26.6729 34.2538 27.3067 34.9404C27.9582 35.6094 28.8737 35.944 30.0533 35.944C31.1801 35.944 32.0428 35.6358 32.6414 35.0196C33.24 34.3858 33.5393 33.6023 33.5393 32.6692C33.5393 31.5424 33.1343 30.7062 32.3245 30.1604C31.5322 29.6146 30.5551 29.3417 29.3931 29.3417H28.0198V27.0177H29.4195C30.4582 27.0177 31.2945 26.7712 31.9283 26.2782C32.5798 25.7853 32.9055 25.0898 32.9055 24.1919C32.9055 23.4348 32.6502 22.8186 32.1396 22.3433C31.6466 21.8679 30.9424 21.6302 30.0269 21.6302C29.0761 21.6302 28.3279 21.9119 27.7821 22.4753C27.2363 23.0211 26.937 23.7077 26.8842 24.5352H24.1112C24.1465 23.4613 24.4105 22.5281 24.9035 21.7359C25.4141 20.9436 26.1095 20.3274 26.9898 19.8872C27.8701 19.4471 28.8825 19.227 30.0269 19.227C31.2593 19.227 32.2893 19.4471 33.1167 19.8872C33.9618 20.3098 34.5957 20.8908 35.0182 21.6302C35.4583 22.3521 35.6784 23.1443 35.6784 24.007C35.6784 24.993 35.4055 25.8557 34.8597 26.5951C34.314 27.3346 33.5833 27.8276 32.6678 28.074C33.7242 28.3029 34.5957 28.8223 35.2823 29.6322C35.9689 30.4245 36.3122 31.4544 36.3122 32.722C36.3122 33.7432 36.0746 34.6851 35.5992 35.5478C35.1238 36.3929 34.4196 37.0707 33.4865 37.5813C32.5533 38.0919 31.409 38.3472 30.0533 38.3472Z" fill="white"/>
</svg>
