<svg width="59" height="59" viewBox="0 0 59 59" fill="none" xmlns="http://www.w3.org/2000/svg">
<path fill-rule="evenodd" clip-rule="evenodd" d="M29.3434 58.6869C45.5494 58.6869 58.6869 45.5494 58.6869 29.3434C58.6869 13.1375 45.5494 0 29.3434 0C13.1375 0 0 13.1375 0 29.3434C0 45.5494 13.1375 58.6869 29.3434 58.6869Z" fill="#DD2242"/>
<path d="M24.0258 38.0312V36.0242C25.223 35.0734 26.3674 34.1139 27.459 33.1456C28.5506 32.1772 29.5189 31.2265 30.364 30.2934C31.2267 29.3427 31.9045 28.4183 32.3975 27.5204C32.8905 26.6049 33.137 25.7246 33.137 24.8795C33.137 24.3161 33.0401 23.7879 32.8465 23.295C32.6528 22.7844 32.3359 22.3795 31.8957 22.0802C31.4556 21.7632 30.8658 21.6048 30.1263 21.6048C29.0171 21.6048 28.1809 21.9569 27.6175 22.6612C27.0717 23.3654 26.8076 24.2105 26.8252 25.1964H24.1051C24.1227 23.8936 24.3956 22.802 24.9237 21.9217C25.4695 21.0414 26.1914 20.3724 27.0893 19.9146C28.0048 19.4569 29.0347 19.228 30.1791 19.228C31.9221 19.228 33.313 19.7209 34.3518 20.7069C35.4081 21.6752 35.9363 23.0309 35.9363 24.7739C35.9363 25.8126 35.681 26.8426 35.1705 27.8637C34.6775 28.8849 34.0261 29.8708 33.2162 30.8216C32.4239 31.7547 31.57 32.635 30.6545 33.4625C29.739 34.29 28.8675 35.0382 28.04 35.7072H36.4909V38.0312H24.0258Z" fill="white"/>
</svg>
